<?xml version="1.0" standalone="no"?>
<!DOCTYPE svg PUBLIC "-//W3C//DTD SVG 20010904//EN"
 "http://www.w3.org/TR/2001/REC-SVG-20010904/DTD/svg10.dtd">
<svg version="1.0" xmlns="http://www.w3.org/2000/svg"
 width="576.000000pt" height="576.000000pt" viewBox="0 0 576.000000 576.000000"
 preserveAspectRatio="xMidYMid meet">
<metadata>
Created by potrace 1.14, written by Peter Selinger 2001-2017
</metadata>
<g transform="translate(0.000000,576.000000) scale(0.100000,-0.100000)"
fill="#000000" stroke="none">
<path d="M4090 5435 c-8 -2 -47 -8 -87 -15 -86 -14 -108 -18 -108 -20 0 -1
-11 -3 -25 -6 -55 -9 -210 -68 -302 -114 -92 -46 -218 -126 -283 -180 -62 -51
-202 -197 -245 -255 -25 -33 -48 -61 -52 -63 -5 -2 -8 -8 -8 -13 0 -5 -15 -32
-34 -61 -28 -44 -91 -171 -126 -253 -13 -31 -49 -147 -54 -175 -2 -14 -9 -43
-15 -65 -10 -39 -19 -102 -26 -195 -1 -25 -4 -49 -5 -55 -1 -5 -2 -14 0 -20 4
-23 0 -177 -5 -185 -3 -5 -1 -11 3 -14 5 -3 6 -22 3 -43 -4 -21 -4 -57 0 -80
3 -24 3 -43 0 -43 -4 0 -4 -27 -1 -60 3 -33 3 -60 -1 -60 -3 0 -3 -19 0 -42 4
-24 4 -60 0 -81 -3 -21 -2 -40 3 -43 4 -3 6 -9 4 -13 -3 -4 -6 -24 -8 -44 -2
-32 -6 -37 -28 -38 -14 -1 -29 0 -35 1 -5 1 -46 1 -90 0 -44 0 -87 -1 -95 -1
-8 1 -35 1 -60 0 -25 -1 -52 -1 -60 0 -8 1 -31 1 -50 0 -19 -1 -42 -1 -50 0
-8 1 -31 1 -50 0 -19 -1 -42 -1 -50 0 -8 1 -35 1 -60 0 -25 -1 -52 -1 -60 0
-8 1 -31 1 -50 0 -19 -1 -42 -1 -50 0 -8 1 -31 1 -50 0 -19 -1 -42 -1 -50 0
-8 1 -35 1 -60 0 -25 -1 -52 -1 -60 0 -8 1 -31 1 -50 0 -19 -1 -42 -1 -50 0
-8 1 -31 1 -50 0 -19 -1 -42 -1 -50 0 -8 1 -35 1 -60 0 -25 -1 -52 -1 -60 0
-8 1 -31 1 -50 0 -19 -1 -42 -1 -50 0 -8 1 -31 1 -50 0 -19 -1 -42 -1 -50 0
-8 1 -35 1 -60 0 -25 -1 -52 -1 -60 0 -8 1 -31 1 -50 0 -19 -1 -42 -1 -50 0
-8 1 -31 1 -50 0 -19 -1 -42 -1 -50 0 -8 1 -35 1 -60 0 -25 -1 -52 -1 -60 0
-16 1 -47 1 -143 -2 -31 -1 -57 1 -57 5 0 4 -6 6 -12 3 -7 -2 -47 -6 -89 -9
-74 -6 -87 -8 -126 -23 -10 -3 -23 -7 -29 -8 -23 -5 -120 -74 -158 -111 -50
-50 -97 -133 -118 -209 -16 -55 -17 -148 -17 -1091 -1 -1027 -1 -1031 21
-1095 50 -149 163 -265 313 -319 60 -22 3670 -28 3773 -6 77 16 168 66 226
123 41 41 105 133 111 161 2 9 10 37 18 62 7 25 13 55 12 68 -1 12 1 22 4 22
3 0 6 25 6 55 0 30 -2 55 -5 55 -3 0 -4 26 -2 57 1 32 2 76 2 98 -1 22 -1 47
0 55 0 8 0 31 -1 50 -1 19 -1 42 0 50 1 8 1 29 0 45 -1 17 -1 36 0 43 2 29 3
124 0 175 0 11 0 48 1 112 0 11 0 36 -1 55 0 19 0 42 0 50 1 8 1 29 0 45 -1
17 -1 36 0 43 1 15 1 28 2 112 1 73 1 68 0 130 -1 25 0 71 1 103 2 31 0 57 -3
57 -3 0 -3 20 1 45 4 25 4 45 0 45 -4 0 -4 20 0 45 4 24 4 49 0 55 -4 6 -4 29
0 50 4 21 4 44 -1 51 -4 7 -5 17 -3 21 3 4 5 42 4 83 -1 75 -1 94 1 118 1 6
-1 45 -5 85 -20 241 -215 432 -446 436 -39 0 -70 3 -70 7 0 3 -25 2 -56 -1
-30 -3 -57 -3 -59 1 -3 3 -23 3 -45 -1 -21 -4 -42 -5 -44 -2 -3 2 -36 4 -73 3
-96 -3 -145 -1 -155 5 -9 6 -10 35 -5 182 1 28 -1 52 -4 52 -3 0 -3 20 1 45 4
25 4 45 0 45 -4 0 -4 20 0 45 4 25 3 48 -2 51 -4 3 -6 10 -3 15 4 5 6 30 5 56
-2 170 3 316 14 361 47 207 179 388 356 489 71 41 192 80 271 88 35 4 67 9 71
11 4 3 8 2 8 -3 0 -4 30 -9 66 -10 99 -3 275 -64 341 -118 91 -75 125 -107
154 -145 19 -25 36 -47 39 -50 3 -3 19 -32 37 -65 62 -119 85 -232 82 -415 0
-36 0 -72 0 -80 2 -67 0 -123 -5 -131 -3 -5 -2 -9 3 -9 4 0 6 -40 3 -90 -3
-49 -3 -100 0 -112 3 -12 3 -44 0 -70 -4 -27 -2 -48 2 -48 5 0 7 -4 3 -10 -6
-10 -7 -154 -1 -207 8 -72 68 -151 136 -181 34 -14 100 -23 168 -22 38 1 42 1
147 0 190 -2 260 27 320 131 19 33 20 54 22 529 1 272 -2 520 -7 550 -4 30
-11 75 -15 100 -26 172 -147 472 -227 564 -10 11 -18 25 -18 32 0 7 -3 14 -7
16 -5 2 -25 26 -46 53 -70 92 -225 243 -293 285 -13 8 -24 18 -24 22 0 5 -6 8
-13 8 -7 0 -22 8 -33 18 -72 63 -346 185 -469 208 -11 2 -31 6 -45 10 -14 3
-41 8 -60 10 -19 3 -42 8 -50 11 -15 6 -333 12 -360 8z"/>
</g>
</svg>
